# xmcd
#
# Track frame offsets:
#	150
#	14395
#	29845
#	47788
#	65295
#	81570
#	93943
#	109553
#	119468
#	139025
#	157570
#
# Disc length: 2369 seconds
#
# Revision: 1
# Processed by: cddbd v1.5.1PL0 Copyright (c) Steve Scherf et al.
# Submitted via: CDex 1.50Beta5
#
DISCID=89093f0b
DTITLE=Gangway - Quiet Edit+
DYEAR=1900
DGENRE=Pop
TTITLE0=Don't Ask Yourself 〜Soundman's Solitaire
TTITLE1=Out on the Rebound from Love
TTITLE2=Going Away 〜Yell more Rugby
TTITLE3=Paris, Mexico
TTITLE4=Don't Ask Yourself 〜Re Oldish
TTITLE5=Can You Believe This?
TTITLE6=Going Away 〜The Maestro Mix
TTITLE7=Going Away -TV Mix(for Weather Forecast)
TTITLE8=Once Bitten, Twice Shy
TTITLE9=Don't Ask Yourself 〜The Walrus Meet the Jellyfish in September Sea
TTITLE10=Biology 〜D-12〜A-24〜D-24〜D-32〜D-48
EXTD=
EXTT0=
EXTT1=
EXTT2=
EXTT3=
EXTT4=
EXTT5=
EXTT6=
EXTT7=
EXTT8=
EXTT9=
EXTT10=
PLAYORDER=
